<svg xmlns="http://www.w3.org/2000/svg" viewBox="0 0 879.21 323.5"><defs><style>.cls-1{fill:#eff1f3;}.cls-2{fill:#272727;}.cls-3{fill:#d17b0f;}</style></defs><g id="Layer_2" data-name="Layer 2"><g id="Layer_3" data-name="Layer 3"><path class="cls-1" d="M67.47,127.4,123.74,1.83h11.44L67.47,153,0,1.83H11.21Z"/><path class="cls-1" d="M193,150.5V1.83h10.29V150.5Z"/><path class="cls-1" d="M367.21,93a32.1,32.1,0,0,1,5.84,18.41,33.61,33.61,0,0,1-4.12,16.12A40.33,40.33,0,0,1,357,140.89q-16,11.45-37.29,11.44a67.82,67.82,0,0,1-20.13-3,58.09,58.09,0,0,1-17.15-8.47q-13-9.6-15.78-23.55l9.83-5.49q.69,12.57,12.36,20.58a42.7,42.7,0,0,0,13.95,7,58.6,58.6,0,0,0,16.92,2.4q18.3,0,30.88-9.38,12.12-8.93,12.12-21a22.2,22.2,0,0,0-4.46-13.27A36.6,36.6,0,0,0,345.83,87.6q-7.54-3.88-27-6.17-1.6-.23-11.55-1.83a61.47,61.47,0,0,1-17-5A45.47,45.47,0,0,1,272.64,60a33.14,33.14,0,0,1-6.41-19.56,31.59,31.59,0,0,1,4.23-15.89,42.42,42.42,0,0,1,12-13.15A58.34,58.34,0,0,1,299.62,3a67.82,67.82,0,0,1,20.13-3Q341,0,357,11.44,370.3,21.5,372.59,34.77l-9.84,5.49a23.24,23.24,0,0,0-3.31-11,33.55,33.55,0,0,0-8.81-9.61,45.58,45.58,0,0,0-14.18-7,57.84,57.84,0,0,0-16.7-2.4,59,59,0,0,0-16.81,2.4,42.58,42.58,0,0,0-14.06,7,33.17,33.17,0,0,0-9.15,9.72,21.37,21.37,0,0,0-3.21,11.09q0,7.1,5.27,14.07a36.71,36.71,0,0,0,13,10.87,41.26,41.26,0,0,0,10.64,3.31q5.84,1,15,2.17l8,1.15a106,106,0,0,1,12.36,2.51,45.06,45.06,0,0,1,10.06,3.89A47.64,47.64,0,0,1,367.21,93Z"/><path class="cls-1" d="M623.27,112.76,605.66,150.5H594.22L664.21,0l66.1,150.5h-11.2l-16.7-37.74Zm40.48-87.37-35.68,77.08h69.76Z"/><path class="cls-1" d="M785.43,150.5V1.83h10.3V140.21h83.48V150.5Z"/><path class="cls-1" d="M268.29,254.43H180.46V323.5H169.94V174.83h10.52V243.9h87.83V174.83h10.3V323.5h-10.3Z"/><path class="cls-1" d="M363,285.76,345.37,323.5H333.94l70-150.5L470,323.5H458.82l-16.7-37.74Zm40.49-87.37-35.68,77.08h69.76Z"/><path class="cls-1" d="M527.89,323.5V174.83h10.3V323.5Z"/><path class="cls-1" d="M695.55,323.5l-61.76-75h18.3q16.92,0,27.45-4.35A36.5,36.5,0,0,0,693,233a26.22,26.22,0,0,0,5.72-16.35,26.91,26.91,0,0,0-4.81-15.21,35.4,35.4,0,0,0-13.72-11.78,44.5,44.5,0,0,0-20.58-4.58H618V323.5H607.72V174.83h51.92a57.33,57.33,0,0,1,19.67,3.32,48.29,48.29,0,0,1,16,9.49,42.26,42.26,0,0,1,10.18,13.49,36.82,36.82,0,0,1-4,38.09,43.59,43.59,0,0,1-17.84,14.29,46.88,46.88,0,0,1-13.84,4,120.07,120.07,0,0,1-14.29.8l53.75,65.19Z"/><path class="cls-1" d="M492,152.1a54.22,54.22,0,0,1-21.62-4.46A56.32,56.32,0,0,1,452,135a52.41,52.41,0,0,1-12.24-18.3,58.91,58.91,0,0,1-4.23-22.19V1.83h10.29V94.46a47.84,47.84,0,0,0,3.55,18.3,45.19,45.19,0,0,0,9.95,15.1A46.82,46.82,0,0,0,474.41,138,45.19,45.19,0,0,0,492,141.58,45.8,45.8,0,0,0,509.87,138,46.93,46.93,0,0,0,525,127.86a45.34,45.34,0,0,0,9.95-15.1,48,48,0,0,0,3.55-18.3V1.83h10.29V94.46a58.91,58.91,0,0,1-4.23,22.19A52.55,52.55,0,0,1,532.28,135,56.83,56.83,0,0,1,514,147.64,54.5,54.5,0,0,1,492,152.1Z"/><path class="cls-2" d="M605.13,51.24a22.13,22.13,0,0,1-2.35,7.5c-.3.6-.6,1.2-.93,1.79l-1.06,1.7a34.82,34.82,0,0,1-2.36,3.27,58.2,58.2,0,0,1-12,10.93c-9,6-19.15,10-29.4,12.76-2.57.61-5.15,1.33-7.74,1.85l-7.81,1.36c-2.62.47-5.2.76-7.82,1s-5.23.5-7.84.66-5.22.27-7.82.34c-1.31,0-2.61.07-3.91.07l-3.83,0c-4.79,0-9.58.14-14.34.42a204.9,204.9,0,0,0-56,10.89,190.47,190.47,0,0,0-26.61,11.58,170,170,0,0,0-25.15,16.22,69,69,0,0,1,8.64-12.91,112.48,112.48,0,0,1,10.84-11.33,127.24,127.24,0,0,1,26-18c18.77-9.94,40-15.27,61.1-16.46,5.28-.28,10.57-.38,15.85-.18L518,75c2.43.07,4.85.1,7.28.12,4.84,0,9.68,0,14.48-.29,2.39-.14,4.79-.28,7.19-.39s4.76-.46,7.15-.68a123.56,123.56,0,0,0,27.79-6,67.22,67.22,0,0,0,12.74-6.33c1-.68,2-1.33,2.93-2.1L599,58.21c.46-.39.88-.82,1.34-1.23A26.73,26.73,0,0,0,605.13,51.24Z"/><path class="cls-3" d="M523.37,25.14s-4.8,43.28-43.28,43.28C480.09,68.42,471.81,34.32,523.37,25.14Z"/><path class="cls-1" d="M538.82,92.79v2.37a48.25,48.25,0,0,1-1.07,10.25,46.92,46.92,0,0,1-2.47,8,49.08,49.08,0,0,1-2.6,5.41,44.7,44.7,0,0,1-7.35,9.69,46.7,46.7,0,0,1-15.1,10.18,45.76,45.76,0,0,1-17.84,3.54,45.18,45.18,0,0,1-17.61-3.54,46.66,46.66,0,0,1-15.09-10.18,45.19,45.19,0,0,1-9.95-15.1,47.82,47.82,0,0,1-3.55-18.29V2.52H435.9V95.16q0,1.92.12,3.81a58,58,0,0,0,4.11,18.37,52.41,52.41,0,0,0,12.24,18.3,56.32,56.32,0,0,0,18.41,12.69,55.32,55.32,0,0,0,43.57,0,56.83,56.83,0,0,0,18.3-12.69,52.22,52.22,0,0,0,9-11.65,53,53,0,0,0,3.21-6.65,58.06,58.06,0,0,0,3.9-15.72,62.64,62.64,0,0,0,.33-6.46V90.79C545.88,91.27,542.45,92.47,538.82,92.79Z"/><path class="cls-3" d="M588.93,114.55s-34,27.21-61.21,0C527.72,114.55,546,84.58,588.93,114.55Z"/></g></g></svg>