<svg xmlns="http://www.w3.org/2000/svg" viewBox="0 0 658.77 297.17"><defs><style>.cls-1{fill:#eff1f3;}.cls-2{fill:#272727;}.cls-3{fill:#d17b0f;}</style></defs><g id="Layer_2" data-name="Layer 2"><g id="Layer_3" data-name="Layer 3"><path class="cls-1" d="M132.63,246.82,243.22,0H265.7L132.63,297.17,0,0H22Z"/><path class="cls-1" d="M567.81,156.45H395.17V292.22H374.49V0h20.68V135.77H567.81V0H588V292.22H567.81Z"/><path class="cls-2" d="M647.43,90.56a43.37,43.37,0,0,1-2.91,12.4,66.71,66.71,0,0,1-5.86,11.63,78.67,78.67,0,0,1-8,10.57,95,95,0,0,1-9.66,9.25,111.56,111.56,0,0,1-22.69,14.25,141.28,141.28,0,0,1-25.08,9l-6.43,1.52c-2.15.45-4.3.83-6.46,1.25-4.31.8-8.66,1.37-13,1.84a223.07,223.07,0,0,1-25.91,1.14c-4.3,0-8.59-.23-12.86-.49q-3.19-.18-6.38-.48l-3.18-.3-1.58-.15-1.38-.11-5.51-.49-5.52-.34c-3.68-.17-7.35-.36-11-.36a245.93,245.93,0,0,0-43.7,3.31c-7.22,1.23-14.4,2.77-21.55,4.67-3.6.93-7.16,1.94-10.7,3.06s-7.11,2.28-10.6,3.61a285.46,285.46,0,0,0-41.67,19c-3.45,1.84-6.78,3.88-10.23,5.84l-5.06,3.11-5,3.2c-6.72,4.37-13.37,9-20,14a111.7,111.7,0,0,1,12.19-22,161.36,161.36,0,0,1,16-19.66c2.88-3.14,6-6,9.09-9,1.57-1.45,3.22-2.81,4.83-4.22l2.45-2.1c.81-.7,1.68-1.33,2.52-2,1.69-1.32,3.39-2.65,5.11-3.95s3.52-2.48,5.28-3.72,3.56-2.47,5.4-3.61,3.71-2.24,5.57-3.36c3.7-2.3,7.55-4.31,11.45-6.28s7.9-3.76,11.94-5.4a187.89,187.89,0,0,1,25-8.34,197.26,197.26,0,0,1,52.29-6.2c4.39.06,8.76.29,13.13.58l6.53.61c2.17.24,4.33.51,6.5.8l1.62.22,1.43.21,2.82.4,5.63.76c3.75.49,7.5.9,11.24,1.29s7.49.68,11.22.94,7.52.46,11.19.55,7.4.17,11.1.07c1.84,0,3.7-.06,5.54-.13l5.51-.28a171.55,171.55,0,0,0,21.75-2.81,126.09,126.09,0,0,0,21-6.15q5.1-2.07,10.07-4.68a90.51,90.51,0,0,0,9.62-6,81,81,0,0,0,9-7.41A60.05,60.05,0,0,0,647.43,90.56Z"/><path class="cls-3" d="M529.91,22.23s-9.44,85.07-85.06,85.07C444.85,107.3,428.55,40.28,529.91,22.23Z"/><path class="cls-3" d="M658.77,198s-66.83,53.48-120.31,0C538.46,198,574.33,139.06,658.77,198Z"/></g></g></svg>