<?xml version="1.0" encoding="UTF-8" standalone="no"?>
<!DOCTYPE svg PUBLIC "-//W3C//DTD SVG 1.1//EN" "http://www.w3.org/Graphics/SVG/1.1/DTD/svg11.dtd">
<svg version="1.1" xmlns="http://www.w3.org/2000/svg" xmlns:xlink="http://www.w3.org/1999/xlink" preserveAspectRatio="xMidYMid meet" viewBox="0 0 640 640" width="640" height="640"><defs><path d="M640 316.34C640 356.9 610.55 389.84 574.28 389.84C538.01 389.84 508.56 356.9 508.56 316.34C508.56 275.77 538.01 242.84 574.28 242.84C610.55 242.84 640 275.77 640 316.34Z" id="a1jCcWsPgN"></path><path d="M553.57 383.56C553.57 424.12 524.12 457.06 487.85 457.06C451.58 457.06 422.13 424.12 422.13 383.56C422.13 342.99 451.58 310.06 487.85 310.06C524.12 310.06 553.57 342.99 553.57 383.56Z" id="b1mBBspnpN"></path><path d="M467.87 336.45C467.87 377.01 438.42 409.95 402.14 409.95C365.87 409.95 336.42 377.01 336.42 336.45C336.42 295.88 365.87 262.95 402.14 262.95C438.42 262.95 467.87 295.88 467.87 336.45Z" id="j2nCJCPL8J"></path><path d="M134.75 365.5C134.75 406.06 105.3 439 69.03 439C32.76 439 3.31 406.06 3.31 365.5C3.31 324.93 32.76 292 69.03 292C105.3 292 134.75 324.93 134.75 365.5Z" id="bEqJj4GDr"></path><path d="M229.79 387.37C229.79 427.94 200.34 460.87 164.06 460.87C127.79 460.87 98.34 427.94 98.34 387.37C98.34 346.8 127.79 313.87 164.06 313.87C200.34 313.87 229.79 346.8 229.79 387.37Z" id="a1ZkhzKrC5"></path><path d="M355.61 301.23C355.61 341.8 326.16 374.73 289.88 374.73C253.61 374.73 224.16 341.8 224.16 301.23C224.16 260.67 253.61 227.73 289.88 227.73C326.16 227.73 355.61 260.67 355.61 301.23Z" id="a2dlleT3Cz"></path><path d="M206.78 545.32C206.78 567.35 189.16 585.23 167.45 585.23C145.75 585.23 128.13 567.35 128.13 545.32C128.13 523.29 145.75 505.41 167.45 505.41C189.16 505.41 206.78 523.29 206.78 545.32Z" id="ePW1vUIhi"></path><path d="M168.06 -25.91L174.83 -25.77L166.85 356.07L160.08 355.93L168.06 -25.91Z" id="a2FXak6rM2"></path><path d="M293.5 -124.07L300.27 -123.96L294.27 257.91L287.49 257.81L293.5 -124.07Z" id="c3sukJtyBf"></path><path d="M397.66 -87.61L404.44 -87.65L406.63 294.26L399.85 294.3L397.66 -87.61Z" id="a18wcr8PDm"></path><path d="M484.53 -25.91L491.31 -25.91L491.17 356.01L484.39 356.01L484.53 -25.91Z" id="a1ATCPNnXC"></path><path d="M568.1 -102.2L574.88 -102.24L576.75 279.68L569.97 279.71L568.1 -102.2Z" id="b1COTPWVoC"></path><path d="M61.92 -58.5L68.7 -58.56L72.42 323.34L65.64 323.41L61.92 -58.5Z" id="a3XulmvWV7"></path><path d="M95.02 363.08C95.02 380.39 83.37 394.44 69.03 394.44C54.69 394.44 43.04 380.39 43.04 363.08C43.04 345.78 54.69 331.73 69.03 331.73C83.37 331.73 95.02 345.78 95.02 363.08Z" id="h2b48cQW6v"></path><path d="M84.57 332.73C84.57 343.02 77.6 351.37 69.03 351.37C60.45 351.37 53.49 343.02 53.49 332.73C53.49 322.44 60.45 314.08 69.03 314.08C77.6 314.08 84.57 322.44 84.57 332.73Z" id="cxWqiH7Sp"></path><path d="M190.05 379.01C190.05 396.32 178.41 410.37 164.06 410.37C149.72 410.37 138.08 396.32 138.08 379.01C138.08 361.71 149.72 347.66 164.06 347.66C178.41 347.66 190.05 361.71 190.05 379.01Z" id="d5tPgTQGg"></path><path d="M179.6 348.66C179.6 358.95 172.64 367.3 164.06 367.3C155.49 367.3 148.53 358.95 148.53 348.66C148.53 338.37 155.49 330.01 164.06 330.01C172.64 330.01 179.6 338.37 179.6 348.66Z" id="a3CKXnBQni"></path><path d="M315.87 294.3C315.87 311.61 304.23 325.66 289.88 325.66C275.54 325.66 263.89 311.61 263.89 294.3C263.89 277 275.54 262.95 289.88 262.95C304.23 262.95 315.87 277 315.87 294.3Z" id="b46rOltSBN"></path><path d="M305.42 263.95C305.42 274.24 298.46 282.59 289.88 282.59C281.31 282.59 274.35 274.24 274.35 263.95C274.35 253.66 281.31 245.3 289.88 245.3C298.46 245.3 305.42 253.66 305.42 263.95Z" id="aBdoadyUT"></path><path d="M428.13 331.59C428.13 348.9 416.49 362.95 402.14 362.95C387.8 362.95 376.15 348.9 376.15 331.59C376.15 314.28 387.8 300.23 402.14 300.23C416.49 300.23 428.13 314.28 428.13 331.59Z" id="a2dx6nWnm4"></path><path d="M417.68 301.23C417.68 311.52 410.72 319.88 402.14 319.88C393.57 319.88 386.61 311.52 386.61 301.23C386.61 290.94 393.57 282.59 402.14 282.59C410.72 282.59 417.68 290.94 417.68 301.23Z" id="a1R7g6Gh4r"></path><path d="M513.84 383.01C513.84 400.32 502.19 414.37 487.85 414.37C473.51 414.37 461.86 400.32 461.86 383.01C461.86 365.71 473.51 351.66 487.85 351.66C502.19 351.66 513.84 365.71 513.84 383.01Z" id="a1S9wmCv96"></path><path d="M503.39 352.66C503.39 362.95 496.42 371.3 487.85 371.3C479.27 371.3 472.31 362.95 472.31 352.66C472.31 342.37 479.27 334.01 487.85 334.01C496.42 334.01 503.39 342.37 503.39 352.66Z" id="aCyOm5A8u"></path><path d="M598.41 310.06C598.41 327.36 586.77 341.41 572.43 341.41C558.08 341.41 546.44 327.36 546.44 310.06C546.44 292.75 558.08 278.7 572.43 278.7C586.77 278.7 598.41 292.75 598.41 310.06Z" id="b1MvMoVNE"></path><path d="M587.96 279.7C587.96 289.99 581 298.34 572.43 298.34C563.85 298.34 556.89 289.99 556.89 279.7C556.89 269.41 563.85 261.06 572.43 261.06C581 261.06 587.96 269.41 587.96 279.7Z" id="iKrUlhDVk"></path><path d="M111.74 531.39C111.74 553.41 94.12 571.3 72.42 571.3C50.72 571.3 33.1 553.41 33.1 531.39C33.1 509.36 50.72 491.48 72.42 491.48C94.12 491.48 111.74 509.36 111.74 531.39Z" id="aWzstIm9z"></path><path d="M324.6 469.41C324.6 489.28 309.05 505.41 289.88 505.41C270.72 505.41 255.16 489.28 255.16 469.41C255.16 449.54 270.72 433.41 289.88 433.41C309.05 433.41 324.6 449.54 324.6 469.41Z" id="c5HmGHwgL8"></path><path d="M431.27 510.46C431.27 529.7 416.87 545.32 399.14 545.32C381.41 545.32 367.02 529.7 367.02 510.46C367.02 491.23 381.41 475.61 399.14 475.61C416.87 475.61 431.27 491.23 431.27 510.46Z" id="a3afRbry3u"></path><path d="M523.78 567.32C523.78 589.35 506.16 607.23 484.46 607.23C462.76 607.23 445.14 589.35 445.14 567.32C445.14 545.29 462.76 527.41 484.46 527.41C506.16 527.41 523.78 545.29 523.78 567.32Z" id="b411fcK7K"></path><path d="M611.75 510.46C611.75 532.49 594.13 550.37 572.43 550.37C550.72 550.37 533.1 532.49 533.1 510.46C533.1 488.44 550.72 470.56 572.43 470.56C594.13 470.56 611.75 488.44 611.75 510.46Z" id="c2JRzmZPK8"></path><path d="M77.33 327.07L59.33 327.07" id="b4skLjBwg8"></path><path d="M78.03 332.73L60.03 332.73" id="b35jEZV8D"></path><path d="M77.33 338.66L59.33 338.66" id="aai2K0K0L"></path><path d="M173.06 344.3L155.06 344.3" id="b82SVWDRw"></path><path d="M173.06 351.66L155.06 351.66" id="b17I9FzNnp"></path><path d="M173.06 338L155.06 338" id="acwc3LBIS"></path><path d="M298.88 263.95L280.88 263.95" id="asIWFpxfc"></path><path d="M298.88 257.91L280.88 257.91" id="b1naK1Akzr"></path><path d="M411.14 294.3L393.14 294.3" id="fmVXvN7gW"></path><path d="M298.88 270.8L280.88 270.8" id="an71UcDog"></path><path d="M411.14 310.06L393.14 310.06" id="bwTNqrsPc"></path><path d="M411.14 301.23L393.14 301.23" id="e3oEGDI0IT"></path><path d="M496.85 351.66L478.85 351.66" id="a5lai6Lrx0"></path><path d="M496.85 344.3L478.85 344.3" id="b30RQ7FxB"></path><path d="M581.43 284.93L563.43 284.93" id="itZaFaCef"></path><path d="M496.85 359.91L478.85 359.91" id="a4ZjCaa9e"></path><path d="M581.43 270.8L563.43 270.8" id="a7vY2p2py"></path><path d="M581.43 278.7L563.43 278.7" id="jlT5mCrUm"></path><path d="M77.33 365.5C77.33 373.5 73.52 380 68.83 380C64.14 380 60.33 373.5 60.33 365.5C60.33 357.49 64.14 351 68.83 351C73.52 351 77.33 357.49 77.33 365.5Z" id="d2fuGGgWAk"></path><path d="M173.06 381.8C173.06 389.8 169.26 396.3 164.56 396.3C159.87 396.3 156.06 389.8 156.06 381.8C156.06 373.8 159.87 367.3 164.56 367.3C169.26 367.3 173.06 373.8 173.06 381.8Z" id="b1SntJCruo"></path><path d="M298.88 297.09C298.88 305.09 295.07 311.59 290.38 311.59C285.69 311.59 281.88 305.09 281.88 297.09C281.88 289.09 285.69 282.59 290.38 282.59C295.07 282.59 298.88 289.09 298.88 297.09Z" id="adTEXSO6"></path><path d="M411.14 333.16C411.14 341.16 407.33 347.66 402.64 347.66C397.95 347.66 394.14 341.16 394.14 333.16C394.14 325.15 397.95 318.66 402.64 318.66C407.33 318.66 411.14 325.15 411.14 333.16Z" id="b2wTJ3SKT"></path><path d="M496.85 385.8C496.85 393.8 493.04 400.3 488.35 400.3C483.66 400.3 479.85 393.8 479.85 385.8C479.85 377.8 483.66 371.3 488.35 371.3C493.04 371.3 496.85 377.8 496.85 385.8Z" id="c35I9AdBVg"></path><path d="M580.43 313.87C580.43 321.87 576.62 328.37 571.93 328.37C567.23 328.37 563.43 321.87 563.43 313.87C563.43 305.87 567.23 299.37 571.93 299.37C576.62 299.37 580.43 305.87 580.43 313.87Z" id="gdKzT83DY"></path></defs><g><g><g><use xlink:href="#a1jCcWsPgN" opacity="0.5" fill="#f2ecd6" fill-opacity="1"></use></g><g><use xlink:href="#b1mBBspnpN" opacity="0.5" fill="#f2ecd6" fill-opacity="1"></use></g><g><use xlink:href="#j2nCJCPL8J" opacity="0.5" fill="#f2ecd6" fill-opacity="1"></use></g><g><use xlink:href="#bEqJj4GDr" opacity="0.5" fill="#f2ecd6" fill-opacity="1"></use></g><g><use xlink:href="#a1ZkhzKrC5" opacity="0.5" fill="#f2ecd6" fill-opacity="1"></use></g><g><use xlink:href="#a2dlleT3Cz" opacity="0.5" fill="#f2ecd6" fill-opacity="1"></use></g><g><use xlink:href="#ePW1vUIhi" opacity="1" fill="#3c392e" fill-opacity="1"></use></g><g><use xlink:href="#a2FXak6rM2" opacity="1" fill="#000000" fill-opacity="1"></use></g><g><use xlink:href="#c3sukJtyBf" opacity="1" fill="#000000" fill-opacity="1"></use></g><g><use xlink:href="#a18wcr8PDm" opacity="1" fill="#000000" fill-opacity="1"></use></g><g><use xlink:href="#a1ATCPNnXC" opacity="1" fill="#000000" fill-opacity="1"></use></g><g><use xlink:href="#b1COTPWVoC" opacity="1" fill="#000000" fill-opacity="1"></use></g><g><use xlink:href="#a3XulmvWV7" opacity="1" fill="#000000" fill-opacity="1"></use></g><g><use xlink:href="#h2b48cQW6v" opacity="1" fill="#fbdf6a" fill-opacity="1"></use></g><g><use xlink:href="#cxWqiH7Sp" opacity="1" fill="#979c9c" fill-opacity="1"></use></g><g><use xlink:href="#d5tPgTQGg" opacity="1" fill="#fbdf6a" fill-opacity="1"></use></g><g><use xlink:href="#a3CKXnBQni" opacity="1" fill="#979c9c" fill-opacity="1"></use></g><g><use xlink:href="#b46rOltSBN" opacity="1" fill="#fbdf6a" fill-opacity="1"></use></g><g><use xlink:href="#aBdoadyUT" opacity="1" fill="#979c9c" fill-opacity="1"></use></g><g><use xlink:href="#a2dx6nWnm4" opacity="1" fill="#fbdf6a" fill-opacity="1"></use></g><g><use xlink:href="#a1R7g6Gh4r" opacity="1" fill="#979c9c" fill-opacity="1"></use></g><g><use xlink:href="#a1S9wmCv96" opacity="1" fill="#fbdf6a" fill-opacity="1"></use></g><g><use xlink:href="#aCyOm5A8u" opacity="1" fill="#979c9c" fill-opacity="1"></use></g><g><use xlink:href="#b1MvMoVNE" opacity="1" fill="#fbdf6a" fill-opacity="1"></use></g><g><use xlink:href="#iKrUlhDVk" opacity="1" fill="#979c9c" fill-opacity="1"></use></g><g><use xlink:href="#aWzstIm9z" opacity="1" fill="#3c392e" fill-opacity="1"></use></g><g><use xlink:href="#c5HmGHwgL8" opacity="1" fill="#3c392e" fill-opacity="1"></use></g><g><use xlink:href="#a3afRbry3u" opacity="1" fill="#3c392e" fill-opacity="1"></use></g><g><use xlink:href="#b411fcK7K" opacity="1" fill="#3c392e" fill-opacity="1"></use></g><g><use xlink:href="#c2JRzmZPK8" opacity="1" fill="#3c392e" fill-opacity="1"></use></g><g><g><use xlink:href="#b4skLjBwg8" opacity="1" fill-opacity="0" stroke="#000000" stroke-width="3" stroke-opacity="1"></use></g></g><g><g><use xlink:href="#b35jEZV8D" opacity="1" fill-opacity="0" stroke="#000000" stroke-width="3" stroke-opacity="1"></use></g></g><g><g><use xlink:href="#aai2K0K0L" opacity="1" fill-opacity="0" stroke="#000000" stroke-width="3" stroke-opacity="1"></use></g></g><g><g><use xlink:href="#b82SVWDRw" opacity="1" fill-opacity="0" stroke="#000000" stroke-width="3" stroke-opacity="1"></use></g></g><g><g><use xlink:href="#b17I9FzNnp" opacity="1" fill-opacity="0" stroke="#000000" stroke-width="3" stroke-opacity="1"></use></g></g><g><g><use xlink:href="#acwc3LBIS" opacity="1" fill-opacity="0" stroke="#000000" stroke-width="3" stroke-opacity="1"></use></g></g><g><g><use xlink:href="#asIWFpxfc" opacity="1" fill-opacity="0" stroke="#000000" stroke-width="3" stroke-opacity="1"></use></g></g><g><g><use xlink:href="#b1naK1Akzr" opacity="1" fill-opacity="0" stroke="#000000" stroke-width="3" stroke-opacity="1"></use></g></g><g><g><use xlink:href="#fmVXvN7gW" opacity="1" fill-opacity="0" stroke="#000000" stroke-width="3" stroke-opacity="1"></use></g></g><g><g><use xlink:href="#an71UcDog" opacity="1" fill-opacity="0" stroke="#000000" stroke-width="3" stroke-opacity="1"></use></g></g><g><g><use xlink:href="#bwTNqrsPc" opacity="1" fill-opacity="0" stroke="#000000" stroke-width="3" stroke-opacity="1"></use></g></g><g><g><use xlink:href="#e3oEGDI0IT" opacity="1" fill-opacity="0" stroke="#000000" stroke-width="3" stroke-opacity="1"></use></g></g><g><g><use xlink:href="#a5lai6Lrx0" opacity="1" fill-opacity="0" stroke="#000000" stroke-width="3" stroke-opacity="1"></use></g></g><g><g><use xlink:href="#b30RQ7FxB" opacity="1" fill-opacity="0" stroke="#000000" stroke-width="3" stroke-opacity="1"></use></g></g><g><g><use xlink:href="#itZaFaCef" opacity="1" fill-opacity="0" stroke="#000000" stroke-width="3" stroke-opacity="1"></use></g></g><g><g><use xlink:href="#a4ZjCaa9e" opacity="1" fill-opacity="0" stroke="#000000" stroke-width="3" stroke-opacity="1"></use></g></g><g><g><use xlink:href="#a7vY2p2py" opacity="1" fill-opacity="0" stroke="#000000" stroke-width="3" stroke-opacity="1"></use></g></g><g><g><use xlink:href="#jlT5mCrUm" opacity="1" fill-opacity="0" stroke="#000000" stroke-width="3" stroke-opacity="1"></use></g></g><g><use xlink:href="#d2fuGGgWAk" opacity="1" fill="#f8f8f8" fill-opacity="1"></use></g><g><use xlink:href="#b1SntJCruo" opacity="1" fill="#f8f8f8" fill-opacity="1"></use></g><g><use xlink:href="#adTEXSO6" opacity="1" fill="#f8f8f8" fill-opacity="1"></use></g><g><use xlink:href="#b2wTJ3SKT" opacity="1" fill="#f8f8f8" fill-opacity="1"></use></g><g><use xlink:href="#c35I9AdBVg" opacity="1" fill="#f8f8f8" fill-opacity="1"></use></g><g><use xlink:href="#gdKzT83DY" opacity="1" fill="#f8f8f8" fill-opacity="1"></use></g></g></g></svg>