<?xml version="1.0" encoding="UTF-8" standalone="no"?>
<!DOCTYPE svg PUBLIC "-//W3C//DTD SVG 1.1//EN" "http://www.w3.org/Graphics/SVG/1.1/DTD/svg11.dtd">
<svg version="1.1" xmlns="http://www.w3.org/2000/svg" xmlns:xlink="http://www.w3.org/1999/xlink" preserveAspectRatio="xMidYMid meet" viewBox="0 0 640 640" width="640" height="640"><defs><path d="M461.25 402.3C413.54 547.22 293.01 637.95 192.26 604.78C91.52 571.62 48.45 427.03 96.16 282.11C143.87 137.19 264.4 46.47 365.14 79.63C465.89 112.8 508.96 257.38 461.25 402.3Z" id="jbzMMZ0r9"></path><path d="M583.76 338.44C589.28 338.44 593.76 342.92 593.76 348.44C593.76 357.5 593.76 374.7 593.76 383.76C593.76 389.28 589.28 393.76 583.76 393.76C518.24 393.76 331.69 393.76 266.17 393.76C260.65 393.76 256.17 389.28 256.17 383.76C256.17 374.7 256.17 357.5 256.17 348.44C256.17 342.92 260.65 338.44 266.17 338.44C331.69 338.44 518.24 338.44 583.76 338.44Z" id="afxjwoG3E"></path><path d="M356.72 388.78C358.3 384.14 363.34 381.67 367.97 383.26C369.65 383.83 366.3 382.68 367.97 383.26C372.61 384.84 375.08 389.88 373.49 394.52C360.01 433.9 322.45 543.68 308.97 583.07C307.39 587.71 302.35 590.18 297.71 588.59C296.04 588.02 299.39 589.17 297.71 588.59C293.08 587.01 290.61 581.97 292.2 577.33C305.67 537.94 343.24 428.16 356.72 388.78Z" id="c2gPS2SIEm"></path><path d="M499.21 398.13C497.59 393.51 500.02 388.45 504.64 386.83C506.32 386.24 502.97 387.41 504.64 386.83C509.26 385.21 514.32 387.64 515.94 392.26C529.72 431.54 568.13 541.03 581.91 580.31C583.53 584.93 581.1 589.99 576.48 591.61C574.81 592.2 578.15 591.03 576.48 591.61C571.86 593.23 566.8 590.8 565.18 586.18C551.4 546.9 512.99 437.41 499.21 398.13Z" id="iRQrwvjLU"></path><path d="M504.76 211.49C510.28 211.49 514.76 215.97 514.76 221.49C514.76 239.21 514.76 282.35 514.76 300.07C514.76 305.59 510.28 310.07 504.76 310.07C474.99 310.07 395.67 310.07 365.89 310.07C360.37 310.07 355.89 305.59 355.89 300.07C355.89 282.35 355.89 239.21 355.89 221.49C355.89 215.97 360.37 211.49 365.89 211.49C395.67 211.49 474.99 211.49 504.76 211.49Z" id="b6QAf0Fy5a"></path><path d="M527.72 315.74C528.59 315.74 529.3 316.45 529.3 317.33C529.3 320.13 529.3 326.96 529.3 329.76C529.3 330.64 528.59 331.35 527.72 331.35C488.74 331.35 373.4 331.35 334.43 331.35C333.55 331.35 332.84 330.64 332.84 329.76C332.84 326.96 332.84 320.13 332.84 317.33C332.84 316.45 333.55 315.74 334.43 315.74C373.4 315.74 488.74 315.74 527.72 315.74Z" id="bGPuvcWbW"></path><path d="M582.41 323.55C582.41 329.42 574.15 334.18 563.97 334.18C553.79 334.18 545.53 329.42 545.53 323.55C545.53 317.67 553.79 312.91 563.97 312.91C574.15 312.91 582.41 317.67 582.41 323.55Z" id="a4innysmTN"></path></defs><g><g><g><use xlink:href="#jbzMMZ0r9" opacity="1" fill="#e6e6e6" fill-opacity="1"></use></g><g><use xlink:href="#afxjwoG3E" opacity="1" fill="#ffffff" fill-opacity="1"></use></g><g><use xlink:href="#c2gPS2SIEm" opacity="1" fill="#ffffff" fill-opacity="1"></use></g><g><use xlink:href="#iRQrwvjLU" opacity="1" fill="#ffffff" fill-opacity="1"></use></g><g><use xlink:href="#b6QAf0Fy5a" opacity="1" fill="#ffffff" fill-opacity="1"></use></g><g><use xlink:href="#bGPuvcWbW" opacity="1" fill="#ffffff" fill-opacity="1"></use></g><g><use xlink:href="#a4innysmTN" opacity="1" fill="#ffffff" fill-opacity="1"></use></g></g></g></svg>