<?xml version="1.0" encoding="UTF-8" standalone="no"?>
<!DOCTYPE svg PUBLIC "-//W3C//DTD SVG 1.1//EN" "http://www.w3.org/Graphics/SVG/1.1/DTD/svg11.dtd">
<svg version="1.1" xmlns="http://www.w3.org/2000/svg" xmlns:xlink="http://www.w3.org/1999/xlink" preserveAspectRatio="xMidYMid meet" viewBox="0 0 640 640" width="640" height="640"><defs><path d="M125.67 105.11L289.7 105.11L289.7 346.6L125.67 346.6L125.67 105.11Z" id="b1e8jQbEsq"></path><path d="M239.29 334.53L289.7 334.53L289.7 514.04L239.29 514.04L239.29 334.53Z" id="b29eSuwF33"></path><path d="M125.67 463.32L289.7 463.32L289.7 516.45L125.67 516.45L125.67 463.32Z" id="a1IWbsYaXo"></path><path d="M344.7 105.11L508.72 105.11L508.72 346.6L344.7 346.6L344.7 105.11Z" id="a3Z9NsKy0b"></path><path d="M458.31 334.53L508.72 334.53L508.72 514.04L458.31 514.04L458.31 334.53Z" id="eyr50ubkM"></path><path d="M344.7 463.32L508.72 463.32L508.72 516.45L344.7 516.45L344.7 463.32Z" id="cArsLx00F"></path></defs><g><g><g><use xlink:href="#b1e8jQbEsq" opacity="1" fill="#7c3387" fill-opacity="1"></use><g><use xlink:href="#b1e8jQbEsq" opacity="1" fill-opacity="0" stroke="#7c3387" stroke-width="1" stroke-opacity="1"></use></g></g><g><use xlink:href="#b29eSuwF33" opacity="1" fill="#7c3387" fill-opacity="1"></use><g><use xlink:href="#b29eSuwF33" opacity="1" fill-opacity="0" stroke="#7c3387" stroke-width="1" stroke-opacity="1"></use></g></g><g><use xlink:href="#a1IWbsYaXo" opacity="1" fill="#7c3387" fill-opacity="1"></use><g><use xlink:href="#a1IWbsYaXo" opacity="1" fill-opacity="0" stroke="#7c3387" stroke-width="1" stroke-opacity="1"></use></g></g><g><use xlink:href="#a3Z9NsKy0b" opacity="1" fill="#7c3387" fill-opacity="1"></use><g><use xlink:href="#a3Z9NsKy0b" opacity="1" fill-opacity="0" stroke="#7c3387" stroke-width="1" stroke-opacity="1"></use></g></g><g><use xlink:href="#eyr50ubkM" opacity="1" fill="#7c3387" fill-opacity="1"></use><g><use xlink:href="#eyr50ubkM" opacity="1" fill-opacity="0" stroke="#7c3387" stroke-width="1" stroke-opacity="1"></use></g></g><g><use xlink:href="#cArsLx00F" opacity="1" fill="#7c3387" fill-opacity="1"></use><g><use xlink:href="#cArsLx00F" opacity="1" fill-opacity="0" stroke="#7c3387" stroke-width="1" stroke-opacity="1"></use></g></g></g></g></svg>