<?xml version="1.0" encoding="UTF-8" standalone="no"?>
<!DOCTYPE svg PUBLIC "-//W3C//DTD SVG 1.1//EN" "http://www.w3.org/Graphics/SVG/1.1/DTD/svg11.dtd">
<svg version="1.1" xmlns="http://www.w3.org/2000/svg" xmlns:xlink="http://www.w3.org/1999/xlink" preserveAspectRatio="xMidYMid meet" viewBox="0 0 640 640" width="640" height="640"><defs><path d="M437.02 309.01C437.02 397.67 365.84 469.65 278.16 469.65C190.48 469.65 119.29 397.67 119.29 309.01C119.29 220.35 190.48 148.37 278.16 148.37C365.84 148.37 437.02 220.35 437.02 309.01Z" id="a145aPAhjX"></path><path d="M457.03 317.1C533.13 382.17 558.14 478 512.85 530.95C467.57 583.9 369.03 574.06 292.94 508.99C216.85 443.91 191.83 348.09 237.12 295.14C282.4 242.19 380.94 252.03 457.03 317.1Z" id="bu3gMEYiJ"></path><path d="M535.35 341.91C497.11 415.73 415.83 449.64 353.97 417.58C292.1 385.53 272.93 299.58 311.18 225.76C349.42 151.94 430.7 118.04 492.56 150.09C554.43 182.14 573.6 268.1 535.35 341.91Z" id="a5OuC69BD"></path><path d="M286.67 197.31L446.24 197.31L446.24 283.84L286.67 283.84L286.67 197.31Z" id="aKzYAhyJe"></path><path d="M292.34 293.84L440.57 293.84L440.57 316.53L292.34 316.53L292.34 293.84Z" id="b2lBDlRqx7"></path><path d="M482.41 302.02C482.41 308.86 476.21 314.4 468.58 314.4C460.95 314.4 454.75 308.86 454.75 302.02C454.75 295.19 460.95 289.65 468.58 289.65C476.21 289.65 482.41 295.19 482.41 302.02Z" id="b3q5eTQni9"></path><path d="M304.4 208.79L432.06 208.79L432.06 271.21L304.4 271.21L304.4 208.79Z" id="e1C1IaN7S"></path><path d="M468.58 289.65L471.06 289.65L471.06 300.28L468.58 300.28L468.58 289.65Z" id="b4Ko1vd5ds"></path><path d="M483.05 321.56C488.57 321.56 493.05 326.04 493.05 331.56C493.05 335.38 493.05 336.82 493.05 340.64C493.05 346.16 488.57 350.64 483.05 350.64C432.14 350.64 289.42 350.64 238.51 350.64C232.99 350.64 228.51 346.16 228.51 340.64C228.51 336.82 228.51 335.38 228.51 331.56C228.51 326.04 232.99 321.56 238.51 321.56C289.42 321.56 432.14 321.56 483.05 321.56Z" id="b1SGASreyn"></path><path d="M444.37 469.26C445.23 472.31 443.45 475.49 440.39 476.35C438.22 476.96 437.25 477.23 435.08 477.84C432.02 478.7 428.84 476.91 427.98 473.86C420.07 445.66 397.88 366.62 389.97 338.43C389.11 335.37 390.89 332.19 393.95 331.34C396.12 330.73 397.09 330.45 399.26 329.84C402.32 328.99 405.5 330.77 406.35 333.83C414.27 362.02 436.46 441.06 444.37 469.26Z" id="a1JOBYuwJY"></path><path d="M294.64 475.51C293.67 478.53 290.43 480.2 287.41 479.23C285.26 478.54 284.3 478.24 282.15 477.55C279.13 476.58 277.46 473.34 278.43 470.32C287.37 442.43 312.42 364.25 321.36 336.36C322.33 333.34 325.57 331.67 328.59 332.64C330.74 333.33 331.7 333.64 333.84 334.32C336.87 335.29 338.54 338.53 337.57 341.56C328.63 369.44 303.58 447.62 294.64 475.51Z" id="a3vYktSh5K"></path></defs><g><g><g><use xlink:href="#a145aPAhjX" opacity="1" fill="#ffffff" fill-opacity="1"></use></g><g><use xlink:href="#bu3gMEYiJ" opacity="1" fill="#ffffff" fill-opacity="1"></use></g><g><use xlink:href="#a5OuC69BD" opacity="1" fill="#ffffff" fill-opacity="1"></use></g><g><use xlink:href="#aKzYAhyJe" opacity="1" fill="#d1d1d1" fill-opacity="1"></use></g><g><use xlink:href="#b2lBDlRqx7" opacity="1" fill="#d1d1d1" fill-opacity="1"></use></g><g><use xlink:href="#b3q5eTQni9" opacity="1" fill="#d1d1d1" fill-opacity="1"></use></g><g><use xlink:href="#e1C1IaN7S" opacity="1" fill="#7c3387" fill-opacity="1"></use></g><g><use xlink:href="#b4Ko1vd5ds" opacity="1" fill="#7c3387" fill-opacity="1"></use></g><g><use xlink:href="#b1SGASreyn" opacity="1" fill="#7c3387" fill-opacity="1"></use></g><g><use xlink:href="#a1JOBYuwJY" opacity="1" fill="#7c3387" fill-opacity="1"></use></g><g><use xlink:href="#a3vYktSh5K" opacity="1" fill="#7c3387" fill-opacity="1"></use></g></g></g></svg>