<?xml version="1.0" encoding="UTF-8" standalone="no"?>
<!DOCTYPE svg PUBLIC "-//W3C//DTD SVG 1.1//EN" "http://www.w3.org/Graphics/SVG/1.1/DTD/svg11.dtd">
<svg version="1.1" xmlns="http://www.w3.org/2000/svg" xmlns:xlink="http://www.w3.org/1999/xlink" preserveAspectRatio="xMidYMid meet" viewBox="0 0 640 640" width="640" height="640"><defs><path d="M460.33 82.41C466.65 82.41 471.77 87.53 471.77 93.85C471.77 184.04 471.77 443.19 471.77 533.38C471.77 539.7 466.65 544.82 460.33 544.82C408.44 544.82 264.19 544.82 212.29 544.82C205.97 544.82 200.85 539.7 200.85 533.38C200.85 443.19 200.85 184.04 200.85 93.85C200.85 87.53 205.97 82.41 212.29 82.41C264.19 82.41 408.44 82.41 460.33 82.41Z" id="b1cAdUQfXY"></path><path d="M402.82 145.23L295.31 271.76L430.25 357.01L311.75 487.52L284.83 475.31L383.15 370.4L248.55 281.55L360.2 146.75L402.82 145.23Z" id="blDQxtfa8"></path><path d="M412.91 82.41L476.74 39.15L449.79 31.35L371.06 80.99L412.91 82.41Z" id="a2l2U8eSA4"></path><path d="M471.77 538.44L463.97 544.82L377.45 544.82L471.77 381.7L471.77 538.44Z" id="b7roSOaFeS"></path></defs><g><g><g><use xlink:href="#b1cAdUQfXY" opacity="1" fill="#7c3387" fill-opacity="1"></use><g><use xlink:href="#b1cAdUQfXY" opacity="1" fill-opacity="0" stroke="#bd5bd7" stroke-width="1" stroke-opacity="1"></use></g></g><g><use xlink:href="#blDQxtfa8" opacity="1" fill="#fbe6a1" fill-opacity="1"></use><g><use xlink:href="#blDQxtfa8" opacity="1" fill-opacity="0" stroke="#000000" stroke-width="1" stroke-opacity="1"></use></g></g><g><use xlink:href="#a2l2U8eSA4" opacity="1" fill="#9e9e9d" fill-opacity="1"></use><g><use xlink:href="#a2l2U8eSA4" opacity="1" fill-opacity="0" stroke="#000000" stroke-width="1" stroke-opacity="1"></use></g></g><g><use xlink:href="#b7roSOaFeS" opacity="1" fill="#55295c" fill-opacity="1"></use><g><use xlink:href="#b7roSOaFeS" opacity="1" fill-opacity="0" stroke="#000000" stroke-width="1" stroke-opacity="1"></use></g></g></g></g></svg>