<?xml version="1.0" encoding="UTF-8" standalone="no"?>
<!DOCTYPE svg PUBLIC "-//W3C//DTD SVG 1.1//EN" "http://www.w3.org/Graphics/SVG/1.1/DTD/svg11.dtd">
<svg version="1.1" xmlns="http://www.w3.org/2000/svg" xmlns:xlink="http://www.w3.org/1999/xlink" preserveAspectRatio="xMidYMid meet" viewBox="0 0 640 640" width="640" height="640"><defs><path d="M366.6 237.44C366.6 302.28 316.57 354.93 254.94 354.93C193.32 354.93 143.28 302.28 143.28 237.44C143.28 172.6 193.32 119.96 254.94 119.96C316.57 119.96 366.6 172.6 366.6 237.44Z" id="ajCaISr0p"></path><path d="M515.2 237.44C515.2 302.28 465.17 354.93 403.54 354.93C341.92 354.93 291.89 302.28 291.89 237.44C291.89 172.6 341.92 119.96 403.54 119.96C465.17 119.96 515.2 172.6 515.2 237.44Z" id="b4fvKVcMQo"></path><path d="" id="f19eoPWIC1"></path><path d="M498.82 297.77L326.93 520.04L165.32 302.54L498.82 297.77Z" id="a30j9YCWh"></path></defs><g><g><g><use xlink:href="#ajCaISr0p" opacity="1" fill="#7c3387" fill-opacity="1"></use></g><g><use xlink:href="#b4fvKVcMQo" opacity="1" fill="#7c3387" fill-opacity="1"></use></g><g><g><use xlink:href="#f19eoPWIC1" opacity="1" fill-opacity="0" stroke="#000000" stroke-width="1" stroke-opacity="1"></use></g></g><g><use xlink:href="#a30j9YCWh" opacity="1" fill="#7c3387" fill-opacity="1"></use><g><use xlink:href="#a30j9YCWh" opacity="1" fill-opacity="0" stroke="#7c3387" stroke-width="1" stroke-opacity="1"></use></g></g></g></g></svg>