<?xml version="1.0" encoding="UTF-8" standalone="no"?>
<!DOCTYPE svg PUBLIC "-//W3C//DTD SVG 1.1//EN" "http://www.w3.org/Graphics/SVG/1.1/DTD/svg11.dtd">
<svg version="1.1" xmlns="http://www.w3.org/2000/svg" xmlns:xlink="http://www.w3.org/1999/xlink" preserveAspectRatio="xMidYMid meet" viewBox="0 0 640 640" width="640" height="640"><defs><path d="M182.64 210.89C182.64 236.25 167.38 256.84 148.59 256.84C129.79 256.84 114.53 236.25 114.53 210.89C114.53 185.54 129.79 164.95 148.59 164.95C167.38 164.95 182.64 185.54 182.64 210.89Z" id="bm9OhWrR8"></path><path d="M158.89 230.23C160.62 230.23 162.02 231.63 162.02 233.35C162.02 244.75 162.02 275.8 162.02 287.19C162.02 288.91 160.62 290.31 158.89 290.31C154.14 290.31 143.03 290.31 138.28 290.31C136.56 290.31 135.16 288.91 135.16 287.19C135.16 275.8 135.16 244.75 135.16 233.35C135.16 231.63 136.56 230.23 138.28 230.23C143.03 230.23 154.14 230.23 158.89 230.23Z" id="a13B4jQD29"></path><path d="M174.11 282.64C178.82 282.64 182.64 286.46 182.64 291.17C182.64 322.26 182.64 407.01 182.64 438.1C182.64 442.81 178.82 446.63 174.11 446.63C162.2 446.63 134.98 446.63 123.06 446.63C118.35 446.63 114.53 442.81 114.53 438.1C114.53 407.01 114.53 322.26 114.53 291.17C114.53 286.46 118.35 282.64 123.06 282.64C134.98 282.64 162.2 282.64 174.11 282.64Z" id="a1jofT5ud"></path><path d="M175.54 284.24C177.16 283.77 178.86 284.69 179.34 286.31C187.08 312.66 209.44 388.78 217.18 415.13C217.66 416.75 216.73 418.44 215.12 418.92C212.26 419.76 206.64 421.41 203.78 422.25C202.16 422.72 200.47 421.8 199.99 420.18C192.25 393.83 169.88 317.71 162.14 291.36C161.67 289.75 162.59 288.05 164.21 287.57C167.06 286.73 172.69 285.08 175.54 284.24Z" id="e87a3mg8Qg"></path><path d="M131.34 287.29C132.97 287.72 133.93 289.4 133.49 291.03C126.07 318.67 104.6 398.63 97.18 426.27C96.75 427.9 95.07 428.86 93.44 428.43C90.57 427.66 84.9 426.13 82.03 425.36C80.4 424.93 79.44 423.25 79.87 421.62C87.3 393.98 108.77 314.02 116.19 286.38C116.62 284.75 118.3 283.79 119.93 284.22C122.8 284.99 128.46 286.52 131.34 287.29Z" id="d15ZgEP5jL"></path><path d="M139.23 445.02C141.33 445.55 142.6 447.68 142.07 449.78C138.55 463.63 128.98 501.37 125.47 515.22C124.94 517.32 122.81 518.59 120.71 518.06C116.26 516.93 106.72 514.51 102.27 513.38C100.17 512.85 98.9 510.72 99.43 508.62C102.95 494.77 112.52 457.02 116.03 443.17C116.56 441.08 118.69 439.81 120.79 440.34C125.24 441.47 134.78 443.89 139.23 445.02Z" id="b16DmySh4"></path><path d="M174.74 440.27C176.88 439.93 178.89 441.4 179.22 443.53C181.42 457.65 187.42 496.13 189.62 510.25C189.95 512.38 188.49 514.39 186.35 514.72C181.81 515.43 172.08 516.94 167.55 517.65C165.41 517.98 163.41 516.52 163.08 514.38C160.88 500.26 154.88 461.79 152.68 447.67C152.35 445.53 153.81 443.53 155.95 443.19C160.48 442.49 170.21 440.97 174.74 440.27Z" id="b2Dc4JfZQC"></path><path d="M121.69 509.7C124.21 509.81 126.17 511.94 126.07 514.47C125.26 533.17 123.05 584.72 122.25 603.42C122.14 605.95 120.01 607.91 117.48 607.8C113.03 607.61 104.25 607.23 99.79 607.04C97.27 606.94 95.31 604.8 95.42 602.27C96.22 583.57 98.43 532.02 99.23 513.32C99.34 510.79 101.47 508.83 104 508.94C108.45 509.13 117.24 509.51 121.69 509.7Z" id="a4lcoBY3O"></path><path d="M186.63 509.85C189.16 509.78 191.27 511.77 191.34 514.29C191.88 533.01 193.36 584.58 193.9 603.29C193.97 605.82 191.98 607.93 189.46 608C185 608.13 176.22 608.38 171.76 608.51C169.23 608.58 167.13 606.59 167.05 604.07C166.51 585.35 165.03 533.78 164.49 515.06C164.42 512.54 166.41 510.43 168.94 510.36C173.39 510.23 182.18 509.98 186.63 509.85Z" id="d1wAb3GLoz"></path><path d="M114.47 600.62C119.99 600.62 124.47 605.1 124.47 610.62C124.47 614.28 124.47 615.24 124.47 618.9C124.47 624.42 119.99 628.9 114.47 628.9C109.36 628.9 104.01 628.9 98.9 628.9C93.38 628.9 88.9 624.42 88.9 618.9C88.9 615.24 88.9 614.28 88.9 610.62C88.9 605.1 93.38 600.62 98.9 600.62C104.01 600.62 109.36 600.62 114.47 600.62Z" id="b4kD62DQV"></path><path d="M190.43 600.62C195.95 600.62 200.43 605.1 200.43 610.62C200.43 614.28 200.43 615.24 200.43 618.9C200.43 624.42 195.95 628.9 190.43 628.9C185.31 628.9 179.97 628.9 174.85 628.9C169.33 628.9 164.85 624.42 164.85 618.9C164.85 615.24 164.85 614.28 164.85 610.62C164.85 605.1 169.33 600.62 174.85 600.62C179.97 600.62 185.31 600.62 190.43 600.62Z" id="a3oGsCG6Qs"></path><path d="M355.93 207.46C355.93 232.82 340.67 253.41 321.87 253.41C303.08 253.41 287.82 232.82 287.82 207.46C287.82 182.11 303.08 161.52 321.87 161.52C340.67 161.52 355.93 182.11 355.93 207.46Z" id="fcE9hBZGm"></path><path d="M332.18 226.8C333.9 226.8 335.3 228.2 335.3 229.92C335.3 241.31 335.3 272.36 335.3 283.76C335.3 285.48 333.9 286.88 332.18 286.88C327.43 286.88 316.31 286.88 311.57 286.88C309.84 286.88 308.44 285.48 308.44 283.76C308.44 272.36 308.44 241.31 308.44 229.92C308.44 228.2 309.84 226.8 311.57 226.8C316.31 226.8 327.43 226.8 332.18 226.8Z" id="a1rgyyixMV"></path><path d="M347.4 279.21C352.11 279.21 355.93 283.03 355.93 287.74C355.93 318.83 355.93 403.58 355.93 434.67C355.93 439.38 352.11 443.2 347.4 443.2C335.48 443.2 308.26 443.2 296.35 443.2C291.64 443.2 287.82 439.38 287.82 434.67C287.82 403.58 287.82 318.83 287.82 287.74C287.82 283.03 291.64 279.21 296.35 279.21C308.26 279.21 335.48 279.21 347.4 279.21Z" id="b1UYn41Mz"></path><path d="M348.83 280.81C350.45 280.34 352.14 281.26 352.62 282.88C360.36 309.23 382.73 385.35 390.47 411.7C390.95 413.32 390.02 415.01 388.4 415.49C385.55 416.33 379.92 417.98 377.07 418.82C375.45 419.29 373.75 418.37 373.28 416.75C365.53 390.4 343.17 314.28 335.43 287.93C334.95 286.32 335.88 284.62 337.5 284.14C340.35 283.3 345.98 281.65 348.83 280.81Z" id="b4RMRE9Ep"></path><path d="M304.62 283.86C306.25 284.29 307.22 285.97 306.78 287.6C299.36 315.24 277.89 395.2 270.47 422.84C270.03 424.47 268.35 425.43 266.73 425C263.85 424.22 258.19 422.7 255.32 421.93C253.69 421.5 252.72 419.82 253.16 418.19C260.58 390.55 282.05 310.59 289.47 282.95C289.91 281.32 291.58 280.36 293.21 280.79C296.08 281.56 301.75 283.09 304.62 283.86Z" id="dZjlKZS96"></path><path d="M312.52 441.58C314.61 442.12 315.88 444.25 315.35 446.35C311.84 460.2 302.27 497.94 298.76 511.79C298.22 513.89 296.09 515.16 293.99 514.63C289.55 513.5 280 511.08 275.55 509.95C273.46 509.42 272.19 507.29 272.72 505.19C276.23 491.34 285.8 453.59 289.32 439.74C289.85 437.65 291.98 436.38 294.08 436.91C298.53 438.04 308.07 440.46 312.52 441.58Z" id="g1iYlgMI3"></path><path d="M348.03 436.83C350.17 436.5 352.17 437.97 352.51 440.1C354.71 454.22 360.7 492.7 362.9 506.81C363.23 508.95 361.77 510.96 359.63 511.29C355.1 512 345.37 513.51 340.84 514.22C338.7 514.55 336.69 513.09 336.36 510.95C334.16 496.83 328.16 458.36 325.97 444.24C325.63 442.1 327.1 440.1 329.23 439.76C333.77 439.06 343.5 437.54 348.03 436.83Z" id="b98oHpkhl"></path><path d="M294.97 506.27C297.5 506.37 299.46 508.51 299.35 511.04C298.55 529.74 296.34 581.29 295.54 599.99C295.43 602.52 293.29 604.48 290.77 604.37C286.31 604.18 277.53 603.8 273.08 603.61C270.55 603.5 268.59 601.37 268.7 598.84C269.5 580.14 271.71 528.59 272.51 509.89C272.62 507.36 274.76 505.4 277.29 505.51C281.74 505.7 290.52 506.08 294.97 506.27Z" id="a7zs8OILt"></path><path d="M359.92 506.42C362.45 506.34 364.56 508.33 364.63 510.86C365.17 529.58 366.65 581.15 367.19 599.86C367.26 602.39 365.27 604.5 362.74 604.57C358.29 604.7 349.5 604.95 345.05 605.08C342.52 605.15 340.41 603.16 340.34 600.64C339.8 581.92 338.32 530.35 337.78 511.63C337.71 509.11 339.7 507 342.22 506.93C346.68 506.8 355.47 506.55 359.92 506.42Z" id="a1nKmn8Zmq"></path><path d="M287.76 597.19C293.28 597.19 297.76 601.67 297.76 607.19C297.76 610.85 297.76 611.81 297.76 615.47C297.76 620.99 293.28 625.47 287.76 625.47C282.64 625.47 277.3 625.47 272.18 625.47C266.66 625.47 262.18 620.99 262.18 615.47C262.18 611.81 262.18 610.85 262.18 607.19C262.18 601.67 266.66 597.19 272.18 597.19C277.3 597.19 282.64 597.19 287.76 597.19Z" id="abmk0SFfo"></path><path d="M363.71 597.19C369.23 597.19 373.71 601.67 373.71 607.19C373.71 610.85 373.71 611.81 373.71 615.47C373.71 620.99 369.23 625.47 363.71 625.47C358.6 625.47 353.25 625.47 348.14 625.47C342.62 625.47 338.14 620.99 338.14 615.47C338.14 611.81 338.14 610.85 338.14 607.19C338.14 601.67 342.62 597.19 348.14 597.19C353.25 597.19 358.6 597.19 363.71 597.19Z" id="dWkQx0lZ1"></path><path d="M550.42 201.21C550.42 226.56 535.16 247.15 516.36 247.15C497.57 247.15 482.31 226.56 482.31 201.21C482.31 175.85 497.57 155.26 516.36 155.26C535.16 155.26 550.42 175.85 550.42 201.21Z" id="bdYOX7OGh"></path><path d="M526.67 220.54C528.39 220.54 529.79 221.94 529.79 223.67C529.79 235.06 529.79 266.11 529.79 277.5C529.79 279.22 528.39 280.62 526.67 280.62C521.92 280.62 510.8 280.62 506.06 280.62C504.33 280.62 502.93 279.22 502.93 277.5C502.93 266.11 502.93 235.06 502.93 223.67C502.93 221.94 504.33 220.54 506.06 220.54C510.8 220.54 521.92 220.54 526.67 220.54Z" id="beTlR1MP"></path><path d="M541.89 272.95C546.6 272.95 550.42 276.77 550.42 281.48C550.42 312.57 550.42 397.32 550.42 428.41C550.42 433.13 546.6 436.94 541.89 436.94C529.97 436.94 502.75 436.94 490.84 436.94C486.13 436.94 482.31 433.13 482.31 428.41C482.31 397.32 482.31 312.57 482.31 281.48C482.31 276.77 486.13 272.95 490.84 272.95C502.75 272.95 529.97 272.95 541.89 272.95Z" id="a2lut5L4xV"></path><path d="M543.32 274.55C544.94 274.08 546.64 275.01 547.11 276.62C554.85 302.97 577.22 379.09 584.96 405.44C585.44 407.06 584.51 408.76 582.89 409.23C580.04 410.07 574.41 411.72 571.56 412.56C569.94 413.04 568.24 412.11 567.77 410.49C560.02 384.14 537.66 308.03 529.92 281.68C529.44 280.06 530.37 278.36 531.99 277.88C534.84 277.05 540.47 275.39 543.32 274.55Z" id="b29z8yYYcC"></path><path d="M499.11 277.6C500.74 278.04 501.71 279.71 501.27 281.34C493.85 308.98 472.38 388.94 464.96 416.58C464.52 418.21 462.85 419.18 461.22 418.74C458.34 417.97 452.68 416.45 449.81 415.67C448.18 415.24 447.21 413.56 447.65 411.93C455.07 384.29 476.54 304.33 483.96 276.69C484.4 275.06 486.07 274.1 487.7 274.54C490.58 275.31 496.24 276.83 499.11 277.6Z" id="c23SkggKB"></path><path d="M507.01 435.33C509.1 435.86 510.37 437.99 509.84 440.09C506.33 453.94 496.76 491.68 493.25 505.53C492.71 507.63 490.58 508.9 488.48 508.37C484.04 507.24 474.49 504.82 470.04 503.69C467.95 503.16 466.68 501.03 467.21 498.93C470.72 485.08 480.29 447.34 483.81 433.49C484.34 431.39 486.47 430.12 488.57 430.65C493.02 431.78 502.56 434.2 507.01 435.33Z" id="e1pxLQ3jdn"></path><path d="M542.52 430.58C544.66 430.24 546.66 431.71 547 433.85C549.2 447.96 555.19 486.44 557.39 500.56C557.72 502.7 556.26 504.7 554.12 505.03C549.59 505.74 539.86 507.26 535.33 507.96C533.19 508.29 531.18 506.83 530.85 504.69C528.65 490.58 522.66 452.1 520.46 437.98C520.12 435.84 521.59 433.84 523.72 433.51C528.26 432.8 537.99 431.28 542.52 430.58Z" id="e1ILPyzRyz"></path><path d="M489.46 500.01C491.99 500.12 493.95 502.25 493.84 504.78C493.04 523.49 490.83 575.03 490.03 593.74C489.92 596.26 487.78 598.22 485.26 598.11C480.8 597.92 472.02 597.55 467.57 597.36C465.04 597.25 463.08 595.11 463.19 592.59C463.99 573.88 466.2 522.33 467.01 503.63C467.11 501.1 469.25 499.14 471.78 499.25C476.23 499.44 485.01 499.82 489.46 500.01Z" id="gw0CXe53"></path><path d="M554.41 500.16C556.94 500.09 559.05 502.08 559.12 504.6C559.66 523.32 561.14 574.89 561.68 593.61C561.75 596.13 559.76 598.24 557.23 598.31C552.78 598.44 543.99 598.7 539.54 598.82C537.01 598.9 534.9 596.91 534.83 594.38C534.29 575.66 532.81 524.09 532.27 505.38C532.2 502.85 534.19 500.74 536.71 500.67C541.17 500.54 549.96 500.29 554.41 500.16Z" id="cQY1C1SaW"></path><path d="M482.25 590.94C487.77 590.94 492.25 595.41 492.25 600.94C492.25 604.59 492.25 605.56 492.25 609.21C492.25 614.73 487.77 619.21 482.25 619.21C477.13 619.21 471.79 619.21 466.67 619.21C461.15 619.21 456.67 614.73 456.67 609.21C456.67 605.56 456.67 604.59 456.67 600.94C456.67 595.41 461.15 590.94 466.67 590.94C471.79 590.94 477.13 590.94 482.25 590.94Z" id="agRkUemgt"></path><path d="M558.2 590.94C563.72 590.94 568.2 595.41 568.2 600.94C568.2 604.59 568.2 605.56 568.2 609.21C568.2 614.73 563.72 619.21 558.2 619.21C553.09 619.21 547.74 619.21 542.63 619.21C537.11 619.21 532.63 614.73 532.63 609.21C532.63 605.56 532.63 604.59 532.63 600.94C532.63 595.41 537.11 590.94 542.63 590.94C547.74 590.94 553.09 590.94 558.2 590.94Z" id="b2yMznVHl"></path><path d="M546.97 186.36L542.18 147.72L520.86 154.16L500.77 154.16L486.76 149.65L467.9 141.92L445.21 128.4L445.21 162.4L455.77 186.36L491.93 186.36L546.97 186.36Z" id="bNFihONwh"></path><path d="M346.15 188.52L355.93 176.51L369.48 170.85L353.93 161.52L373.71 155.26L346.15 155.26L352.48 139.75L324.24 148.23L321.87 134.1L299.36 143.28L284.03 128.4L284.03 148.23L268.7 139.75L268.7 161.52L251.43 151.77L243.66 176.51L265.57 176.51L276.88 198.42L291.73 194.18L346.15 188.52Z" id="e19BrLMGVx"></path><path d="M171.15 214.68L185.7 230.23L203.37 258.5L179.2 253.41L193.9 271.23L164.85 263.45L156.01 276.17L142.19 263.45L129.15 276.17L129.15 256.84L104.41 272.95L120.75 253.41L99.31 248.61L120.75 223.16L171.15 214.68Z" id="a26AX6m75X"></path></defs><g><g><g><use xlink:href="#bm9OhWrR8" opacity="1" fill="#7c3387" fill-opacity="1"></use></g><g><use xlink:href="#a13B4jQD29" opacity="1" fill="#7c3387" fill-opacity="1"></use></g><g><use xlink:href="#a1jofT5ud" opacity="1" fill="#7c3387" fill-opacity="1"></use></g><g><use xlink:href="#e87a3mg8Qg" opacity="1" fill="#7c3387" fill-opacity="1"></use></g><g><use xlink:href="#d15ZgEP5jL" opacity="1" fill="#7c3387" fill-opacity="1"></use></g><g><use xlink:href="#b16DmySh4" opacity="1" fill="#7c3387" fill-opacity="1"></use></g><g><use xlink:href="#b2Dc4JfZQC" opacity="1" fill="#7c3387" fill-opacity="1"></use></g><g><use xlink:href="#a4lcoBY3O" opacity="1" fill="#7c3387" fill-opacity="1"></use></g><g><use xlink:href="#d1wAb3GLoz" opacity="1" fill="#7c3387" fill-opacity="1"></use></g><g><use xlink:href="#b4kD62DQV" opacity="1" fill="#7c3387" fill-opacity="1"></use></g><g><use xlink:href="#a3oGsCG6Qs" opacity="1" fill="#7c3387" fill-opacity="1"></use></g><g><use xlink:href="#fcE9hBZGm" opacity="1" fill="#7c3387" fill-opacity="1"></use></g><g><use xlink:href="#a1rgyyixMV" opacity="1" fill="#7c3387" fill-opacity="1"></use></g><g><use xlink:href="#b1UYn41Mz" opacity="1" fill="#7c3387" fill-opacity="1"></use></g><g><use xlink:href="#b4RMRE9Ep" opacity="1" fill="#7c3387" fill-opacity="1"></use></g><g><use xlink:href="#dZjlKZS96" opacity="1" fill="#7c3387" fill-opacity="1"></use></g><g><use xlink:href="#g1iYlgMI3" opacity="1" fill="#7c3387" fill-opacity="1"></use></g><g><use xlink:href="#b98oHpkhl" opacity="1" fill="#7c3387" fill-opacity="1"></use></g><g><use xlink:href="#a7zs8OILt" opacity="1" fill="#7c3387" fill-opacity="1"></use></g><g><use xlink:href="#a1nKmn8Zmq" opacity="1" fill="#7c3387" fill-opacity="1"></use></g><g><use xlink:href="#abmk0SFfo" opacity="1" fill="#7c3387" fill-opacity="1"></use></g><g><use xlink:href="#dWkQx0lZ1" opacity="1" fill="#7c3387" fill-opacity="1"></use></g><g><use xlink:href="#bdYOX7OGh" opacity="1" fill="#7c3387" fill-opacity="1"></use></g><g><use xlink:href="#beTlR1MP" opacity="1" fill="#7c3387" fill-opacity="1"></use></g><g><use xlink:href="#a2lut5L4xV" opacity="1" fill="#7c3387" fill-opacity="1"></use></g><g><use xlink:href="#b29z8yYYcC" opacity="1" fill="#7c3387" fill-opacity="1"></use></g><g><use xlink:href="#c23SkggKB" opacity="1" fill="#7c3387" fill-opacity="1"></use></g><g><use xlink:href="#e1pxLQ3jdn" opacity="1" fill="#7c3387" fill-opacity="1"></use></g><g><use xlink:href="#e1ILPyzRyz" opacity="1" fill="#7c3387" fill-opacity="1"></use></g><g><use xlink:href="#gw0CXe53" opacity="1" fill="#7c3387" fill-opacity="1"></use></g><g><use xlink:href="#cQY1C1SaW" opacity="1" fill="#7c3387" fill-opacity="1"></use></g><g><use xlink:href="#agRkUemgt" opacity="1" fill="#7c3387" fill-opacity="1"></use></g><g><use xlink:href="#b2yMznVHl" opacity="1" fill="#7c3387" fill-opacity="1"></use></g><g><use xlink:href="#bNFihONwh" opacity="1" fill="#7c3387" fill-opacity="1"></use><g><use xlink:href="#bNFihONwh" opacity="1" fill-opacity="0" stroke="#7c3387" stroke-width="1" stroke-opacity="1"></use></g></g><g><use xlink:href="#e19BrLMGVx" opacity="1" fill="#7c3387" fill-opacity="1"></use><g><use xlink:href="#e19BrLMGVx" opacity="1" fill-opacity="0" stroke="#7c3387" stroke-width="1" stroke-opacity="1"></use></g></g><g><use xlink:href="#a26AX6m75X" opacity="1" fill="#7c3387" fill-opacity="1"></use><g><use xlink:href="#a26AX6m75X" opacity="1" fill-opacity="0" stroke="#7c3387" stroke-width="1" stroke-opacity="1"></use></g></g></g></g></svg>